<svg width="147" height="40" viewBox="0 0 147 40" fill="none" xmlns="http://www.w3.org/2000/svg">
<path d="M46.1611 21.2275H42.8301V19.4785H46.1611C46.7412 19.4785 47.21 19.3848 47.5674 19.1973C47.9248 19.0098 48.1855 18.752 48.3496 18.4238C48.5195 18.0898 48.6045 17.709 48.6045 17.2812C48.6045 16.877 48.5195 16.499 48.3496 16.1475C48.1855 15.79 47.9248 15.5029 47.5674 15.2861C47.21 15.0693 46.7412 14.9609 46.1611 14.9609H43.5068V26H41.3008V13.2031H46.1611C47.1514 13.2031 47.9922 13.3789 48.6836 13.7305C49.3809 14.0762 49.9111 14.5566 50.2744 15.1719C50.6377 15.7812 50.8193 16.4785 50.8193 17.2637C50.8193 18.0898 50.6377 18.7988 50.2744 19.3906C49.9111 19.9824 49.3809 20.4365 48.6836 20.7529C47.9922 21.0693 47.1514 21.2275 46.1611 21.2275ZM54.7129 18.3008V26H52.5947V16.4902H54.6162L54.7129 18.3008ZM57.6221 16.4287L57.6045 18.3975C57.4756 18.374 57.335 18.3564 57.1826 18.3447C57.0361 18.333 56.8896 18.3271 56.7432 18.3271C56.3799 18.3271 56.0605 18.3799 55.7852 18.4854C55.5098 18.585 55.2783 18.7314 55.0908 18.9248C54.9092 19.1123 54.7686 19.3408 54.6689 19.6104C54.5693 19.8799 54.5107 20.1816 54.4932 20.5156L54.0098 20.5508C54.0098 19.9531 54.0684 19.3994 54.1855 18.8896C54.3027 18.3799 54.4785 17.9316 54.7129 17.5449C54.9531 17.1582 55.252 16.8564 55.6094 16.6396C55.9727 16.4229 56.3916 16.3145 56.8662 16.3145C56.9951 16.3145 57.1328 16.3262 57.2793 16.3496C57.4316 16.373 57.5459 16.3994 57.6221 16.4287ZM61.2168 16.4902V26H59.0898V16.4902H61.2168ZM58.9492 13.9941C58.9492 13.6719 59.0547 13.4053 59.2656 13.1943C59.4824 12.9775 59.7812 12.8691 60.1621 12.8691C60.5371 12.8691 60.833 12.9775 61.0498 13.1943C61.2666 13.4053 61.375 13.6719 61.375 13.9941C61.375 14.3105 61.2666 14.5742 61.0498 14.7852C60.833 14.9961 60.5371 15.1016 60.1621 15.1016C59.7812 15.1016 59.4824 14.9961 59.2656 14.7852C59.0547 14.5742 58.9492 14.3105 58.9492 13.9941ZM66.6309 24.3213L68.96 16.4902H71.1572L67.8525 26H66.4814L66.6309 24.3213ZM64.8467 16.4902L67.2197 24.3564L67.334 26H65.9629L62.6406 16.4902H64.8467ZM77.6875 24.0928V19.5576C77.6875 19.2178 77.626 18.9248 77.5029 18.6787C77.3799 18.4326 77.1924 18.2422 76.9404 18.1074C76.6943 17.9727 76.3838 17.9053 76.0088 17.9053C75.6631 17.9053 75.3643 17.9639 75.1123 18.0811C74.8604 18.1982 74.6641 18.3564 74.5234 18.5557C74.3828 18.7549 74.3125 18.9805 74.3125 19.2324H72.2031C72.2031 18.8574 72.2939 18.4941 72.4756 18.1426C72.6572 17.791 72.9209 17.4775 73.2666 17.2021C73.6123 16.9268 74.0254 16.71 74.5059 16.5518C74.9863 16.3936 75.5254 16.3145 76.123 16.3145C76.8379 16.3145 77.4707 16.4346 78.0215 16.6748C78.5781 16.915 79.0146 17.2783 79.3311 17.7646C79.6533 18.2451 79.8145 18.8486 79.8145 19.5752V23.8027C79.8145 24.2363 79.8438 24.626 79.9023 24.9717C79.9668 25.3115 80.0576 25.6074 80.1748 25.8594V26H78.0039C77.9043 25.7715 77.8252 25.4814 77.7666 25.1299C77.7139 24.7725 77.6875 24.4268 77.6875 24.0928ZM77.9951 20.2168L78.0127 21.5264H76.4922C76.0996 21.5264 75.7539 21.5645 75.4551 21.6406C75.1562 21.7109 74.9072 21.8164 74.708 21.957C74.5088 22.0977 74.3594 22.2676 74.2598 22.4668C74.1602 22.666 74.1104 22.8916 74.1104 23.1436C74.1104 23.3955 74.1689 23.627 74.2861 23.8379C74.4033 24.043 74.5732 24.2041 74.7959 24.3213C75.0244 24.4385 75.2998 24.4971 75.6221 24.4971C76.0557 24.4971 76.4336 24.4092 76.7559 24.2334C77.084 24.0518 77.3418 23.832 77.5293 23.5742C77.7168 23.3105 77.8164 23.0615 77.8281 22.8271L78.5137 23.7676C78.4434 24.0078 78.3232 24.2656 78.1533 24.541C77.9834 24.8164 77.7607 25.0801 77.4854 25.332C77.2158 25.5781 76.8906 25.7803 76.5098 25.9385C76.1348 26.0967 75.7012 26.1758 75.209 26.1758C74.5879 26.1758 74.0342 26.0527 73.5479 25.8066C73.0615 25.5547 72.6807 25.2178 72.4053 24.7959C72.1299 24.3682 71.9922 23.8848 71.9922 23.3457C71.9922 22.8418 72.0859 22.3965 72.2734 22.0098C72.4668 21.6172 72.748 21.2891 73.1172 21.0254C73.4922 20.7617 73.9492 20.5625 74.4883 20.4277C75.0273 20.2871 75.6426 20.2168 76.334 20.2168H77.9951ZM86.3887 16.4902V18.0371H81.0273V16.4902H86.3887ZM82.5742 14.1611H84.6924V23.3721C84.6924 23.665 84.7334 23.8906 84.8154 24.0488C84.9033 24.2012 85.0234 24.3037 85.1758 24.3564C85.3281 24.4092 85.5068 24.4355 85.7119 24.4355C85.8584 24.4355 85.999 24.4268 86.1338 24.4092C86.2686 24.3916 86.377 24.374 86.459 24.3564L86.4678 25.9736C86.292 26.0264 86.0869 26.0732 85.8525 26.1143C85.624 26.1553 85.3604 26.1758 85.0615 26.1758C84.5752 26.1758 84.1445 26.0908 83.7695 25.9209C83.3945 25.7451 83.1016 25.4609 82.8906 25.0684C82.6797 24.6758 82.5742 24.1543 82.5742 23.5039V14.1611ZM92.2158 26.1758C91.5127 26.1758 90.877 26.0615 90.3086 25.833C89.7461 25.5986 89.2656 25.2734 88.8672 24.8574C88.4746 24.4414 88.1729 23.9521 87.9619 23.3896C87.751 22.8271 87.6455 22.2207 87.6455 21.5703V21.2188C87.6455 20.4746 87.7539 19.8008 87.9707 19.1973C88.1875 18.5938 88.4893 18.0781 88.876 17.6504C89.2627 17.2168 89.7197 16.8857 90.2471 16.6572C90.7744 16.4287 91.3457 16.3145 91.9609 16.3145C92.6406 16.3145 93.2354 16.4287 93.7451 16.6572C94.2549 16.8857 94.6768 17.208 95.0107 17.624C95.3506 18.0342 95.6025 18.5234 95.7666 19.0918C95.9365 19.6602 96.0215 20.2871 96.0215 20.9727V21.8779H88.6738V20.3574H93.9297V20.1904C93.918 19.8096 93.8418 19.4521 93.7012 19.1182C93.5664 18.7842 93.3584 18.5146 93.0771 18.3096C92.7959 18.1045 92.4209 18.002 91.9521 18.002C91.6006 18.002 91.2871 18.0781 91.0117 18.2305C90.7422 18.377 90.5166 18.5908 90.335 18.8721C90.1533 19.1533 90.0127 19.4932 89.9131 19.8916C89.8193 20.2842 89.7725 20.7266 89.7725 21.2188V21.5703C89.7725 21.9863 89.8281 22.373 89.9395 22.7305C90.0566 23.082 90.2266 23.3896 90.4492 23.6533C90.6719 23.917 90.9414 24.125 91.2578 24.2773C91.5742 24.4238 91.9346 24.4971 92.3389 24.4971C92.8486 24.4971 93.3027 24.3945 93.7012 24.1895C94.0996 23.9844 94.4453 23.6943 94.7383 23.3193L95.8545 24.4004C95.6494 24.6992 95.3828 24.9863 95.0547 25.2617C94.7266 25.5312 94.3252 25.751 93.8506 25.9209C93.3818 26.0908 92.8369 26.1758 92.2158 26.1758ZM104.617 22.7041C104.617 22.4404 104.576 22.2061 104.494 22.001C104.418 21.7959 104.28 21.6084 104.081 21.4385C103.882 21.2686 103.601 21.1045 103.237 20.9463C102.88 20.7822 102.423 20.6152 101.866 20.4453C101.257 20.2578 100.694 20.0498 100.179 19.8213C99.6689 19.5869 99.2236 19.3174 98.8428 19.0127C98.4619 18.7021 98.166 18.3477 97.9551 17.9492C97.7441 17.5449 97.6387 17.0791 97.6387 16.5518C97.6387 16.0303 97.7471 15.5557 97.9639 15.1279C98.1865 14.7002 98.5 14.3311 98.9043 14.0205C99.3145 13.7041 99.7979 13.4609 100.354 13.291C100.911 13.1152 101.526 13.0273 102.2 13.0273C103.149 13.0273 103.967 13.2031 104.652 13.5547C105.344 13.9062 105.874 14.3779 106.243 14.9697C106.618 15.5615 106.806 16.2148 106.806 16.9297H104.617C104.617 16.5078 104.526 16.1357 104.345 15.8135C104.169 15.4854 103.899 15.2275 103.536 15.04C103.179 14.8525 102.725 14.7588 102.174 14.7588C101.652 14.7588 101.219 14.8379 100.873 14.9961C100.527 15.1543 100.27 15.3682 100.1 15.6377C99.9297 15.9072 99.8447 16.2119 99.8447 16.5518C99.8447 16.792 99.9004 17.0117 100.012 17.2109C100.123 17.4043 100.293 17.5859 100.521 17.7559C100.75 17.9199 101.037 18.0752 101.383 18.2217C101.729 18.3682 102.136 18.5088 102.604 18.6436C103.313 18.8545 103.932 19.0889 104.459 19.3467C104.986 19.5986 105.426 19.8857 105.777 20.208C106.129 20.5303 106.393 20.8965 106.568 21.3066C106.744 21.7109 106.832 22.1709 106.832 22.6865C106.832 23.2256 106.724 23.7119 106.507 24.1455C106.29 24.5732 105.979 24.9395 105.575 25.2441C105.177 25.543 104.696 25.7744 104.134 25.9385C103.577 26.0967 102.956 26.1758 102.271 26.1758C101.655 26.1758 101.049 26.0938 100.451 25.9297C99.8594 25.7656 99.3203 25.5166 98.834 25.1826C98.3477 24.8428 97.9609 24.4209 97.6738 23.917C97.3867 23.4072 97.2432 22.8125 97.2432 22.1328H99.4492C99.4492 22.5488 99.5195 22.9033 99.6602 23.1963C99.8066 23.4893 100.009 23.7295 100.267 23.917C100.524 24.0986 100.823 24.2334 101.163 24.3213C101.509 24.4092 101.878 24.4531 102.271 24.4531C102.786 24.4531 103.217 24.3799 103.562 24.2334C103.914 24.0869 104.178 23.8818 104.354 23.6182C104.529 23.3545 104.617 23.0498 104.617 22.7041ZM111.156 23.8906L113.354 16.4902H114.707L114.338 18.7051L112.123 26H110.91L111.156 23.8906ZM109.864 16.4902L111.578 23.9258L111.719 26H110.365L107.79 16.4902H109.864ZM116.764 23.8379L118.425 16.4902H120.49L117.924 26H116.57L116.764 23.8379ZM114.936 16.4902L117.106 23.8027L117.379 26H116.166L113.925 18.6963L113.556 16.4902H114.936ZM127.293 24.0928V19.5576C127.293 19.2178 127.231 18.9248 127.108 18.6787C126.985 18.4326 126.798 18.2422 126.546 18.1074C126.3 17.9727 125.989 17.9053 125.614 17.9053C125.269 17.9053 124.97 17.9639 124.718 18.0811C124.466 18.1982 124.27 18.3564 124.129 18.5557C123.988 18.7549 123.918 18.9805 123.918 19.2324H121.809C121.809 18.8574 121.899 18.4941 122.081 18.1426C122.263 17.791 122.526 17.4775 122.872 17.2021C123.218 16.9268 123.631 16.71 124.111 16.5518C124.592 16.3936 125.131 16.3145 125.729 16.3145C126.443 16.3145 127.076 16.4346 127.627 16.6748C128.184 16.915 128.62 17.2783 128.937 17.7646C129.259 18.2451 129.42 18.8486 129.42 19.5752V23.8027C129.42 24.2363 129.449 24.626 129.508 24.9717C129.572 25.3115 129.663 25.6074 129.78 25.8594V26H127.609C127.51 25.7715 127.431 25.4814 127.372 25.1299C127.319 24.7725 127.293 24.4268 127.293 24.0928ZM127.601 20.2168L127.618 21.5264H126.098C125.705 21.5264 125.359 21.5645 125.061 21.6406C124.762 21.7109 124.513 21.8164 124.313 21.957C124.114 22.0977 123.965 22.2676 123.865 22.4668C123.766 22.666 123.716 22.8916 123.716 23.1436C123.716 23.3955 123.774 23.627 123.892 23.8379C124.009 24.043 124.179 24.2041 124.401 24.3213C124.63 24.4385 124.905 24.4971 125.228 24.4971C125.661 24.4971 126.039 24.4092 126.361 24.2334C126.689 24.0518 126.947 23.832 127.135 23.5742C127.322 23.3105 127.422 23.0615 127.434 22.8271L128.119 23.7676C128.049 24.0078 127.929 24.2656 127.759 24.541C127.589 24.8164 127.366 25.0801 127.091 25.332C126.821 25.5781 126.496 25.7803 126.115 25.9385C125.74 26.0967 125.307 26.1758 124.814 26.1758C124.193 26.1758 123.64 26.0527 123.153 25.8066C122.667 25.5547 122.286 25.2178 122.011 24.7959C121.735 24.3682 121.598 23.8848 121.598 23.3457C121.598 22.8418 121.691 22.3965 121.879 22.0098C122.072 21.6172 122.354 21.2891 122.723 21.0254C123.098 20.7617 123.555 20.5625 124.094 20.4277C124.633 20.2871 125.248 20.2168 125.939 20.2168H127.601ZM133.762 18.3184V29.6562H131.644V16.4902H133.595L133.762 18.3184ZM139.958 21.1572V21.3418C139.958 22.0332 139.876 22.6748 139.712 23.2666C139.554 23.8525 139.316 24.3652 139 24.8047C138.689 25.2383 138.306 25.5752 137.849 25.8154C137.392 26.0557 136.864 26.1758 136.267 26.1758C135.675 26.1758 135.156 26.0674 134.711 25.8506C134.271 25.6279 133.899 25.3145 133.595 24.9102C133.29 24.5059 133.044 24.0312 132.856 23.4863C132.675 22.9355 132.546 22.332 132.47 21.6758V20.9639C132.546 20.2666 132.675 19.6338 132.856 19.0654C133.044 18.4971 133.29 18.0078 133.595 17.5977C133.899 17.1875 134.271 16.8711 134.711 16.6484C135.15 16.4258 135.663 16.3145 136.249 16.3145C136.847 16.3145 137.377 16.4316 137.84 16.666C138.303 16.8945 138.692 17.2227 139.009 17.6504C139.325 18.0723 139.562 18.582 139.721 19.1797C139.879 19.7715 139.958 20.4307 139.958 21.1572ZM137.84 21.3418V21.1572C137.84 20.7178 137.799 20.3105 137.717 19.9355C137.635 19.5547 137.506 19.2207 137.33 18.9336C137.154 18.6465 136.929 18.4238 136.653 18.2656C136.384 18.1016 136.059 18.0195 135.678 18.0195C135.303 18.0195 134.98 18.084 134.711 18.2129C134.441 18.3359 134.216 18.5088 134.034 18.7314C133.853 18.9541 133.712 19.2148 133.612 19.5137C133.513 19.8066 133.442 20.126 133.401 20.4717V22.1768C133.472 22.5986 133.592 22.9854 133.762 23.3369C133.932 23.6885 134.172 23.9697 134.482 24.1807C134.799 24.3857 135.203 24.4883 135.695 24.4883C136.076 24.4883 136.401 24.4062 136.671 24.2422C136.94 24.0781 137.16 23.8525 137.33 23.5654C137.506 23.2725 137.635 22.9355 137.717 22.5547C137.799 22.1738 137.84 21.7695 137.84 21.3418Z" fill="#F5F5F5"/>
<g clip-path="url(#clip0_103_1179)">
<path d="M6.33834 17.8658C6.46598 17.5699 6.5788 17.3083 6.69293 17.0458C7.00802 16.3196 7.3231 15.5938 7.63819 14.8682C7.93992 14.1733 8.2418 13.4786 8.54382 12.784C9.1194 11.4585 9.69468 10.1336 10.2697 8.80924C10.4374 8.42377 10.6116 8.04083 10.7802 7.65535C10.8351 7.52855 10.893 7.46008 11.0533 7.53743C11.5691 7.78765 12.0914 8.02434 12.6106 8.26738C13.4513 8.66131 14.2912 9.05777 15.1337 9.44747C15.1941 9.47154 15.2618 9.47154 15.3223 9.44747C16.143 9.06369 16.9601 8.67356 17.7795 8.28682C18.3044 8.03702 18.8363 7.80329 19.3542 7.54123C19.5485 7.44317 19.6195 7.52602 19.6827 7.66803C19.9414 8.25554 20.1983 8.8439 20.4533 9.4331C20.8854 10.4289 21.3166 11.4253 21.747 12.4222C22.2593 13.6057 22.7721 14.7892 23.2856 15.9726C23.513 16.4959 23.746 17.0166 23.9747 17.5395C24.0161 17.6346 24.0466 17.7343 24.0932 17.862L6.33834 17.8658Z" fill="white"/>
<path d="M15.4791 22.1953H1.876C1.63642 22.1953 1.40119 22.1982 1.20474 22.0262C1.01786 21.8626 0.943373 21.661 1.044 21.4222C1.12589 21.2274 1.28227 21.1082 1.51271 21.0731C1.93046 21.0097 2.34472 20.9252 2.76115 20.8516C2.95151 20.8178 3.14231 20.7848 3.33441 20.7586C3.6193 20.7197 3.9068 20.6952 4.19125 20.6513C4.60115 20.5875 5.00931 20.5122 5.41791 20.4421C5.63572 20.404 5.857 20.363 6.07698 20.3275C6.59318 20.243 7.1085 20.1584 7.62556 20.0836C8.10821 20.0135 8.59261 19.9568 9.07613 19.8926L10.8059 19.6665C10.8273 19.6635 10.8495 19.661 10.8704 19.6593C11.4179 19.6238 11.9646 19.5676 12.5122 19.557C14.2503 19.5237 15.9886 19.5012 17.7273 19.4894C18.2247 19.4868 18.723 19.5337 19.2201 19.5739C19.8086 19.6204 20.3962 19.6669 20.983 19.743C21.6442 19.8296 22.3002 19.9513 22.9593 20.054C23.1932 20.0908 23.4302 20.1119 23.6641 20.1483C24.1738 20.2273 24.6826 20.314 25.1922 20.3934C25.6039 20.4577 26.0173 20.5118 26.4289 20.5777C26.902 20.6538 27.3733 20.7409 27.8468 20.817C28.2506 20.8816 28.661 20.9167 29.0587 21.005C29.3165 21.0625 29.6058 21.0249 29.8258 21.2362C30.1067 21.5059 30.0396 21.9692 29.6681 22.1002C29.4861 22.1619 29.2946 22.193 29.1018 22.1923C26.5123 22.1982 23.9224 22.1998 21.3323 22.197H15.4791V22.1953Z" fill="white"/>
<path d="M16.7833 26.3263C17.1884 24.9581 18.0662 24.0071 19.3969 23.4792C20.0185 23.2328 20.6902 23.1174 21.3654 23.2112C22.9005 23.4225 24.0662 24.1804 24.781 25.53C25.5424 26.9671 25.2815 28.8238 24.1877 30.0487C23.5936 30.7153 22.8578 31.1688 21.9883 31.3801C21.4053 31.518 20.7991 31.536 20.2085 31.433C19.3342 31.2893 18.6067 30.908 17.9712 30.3374C17.4743 29.8976 17.1051 29.339 16.9005 28.7173C16.7903 28.3792 16.7367 28.0246 16.6731 27.6746C16.65 27.5478 16.6086 27.4971 16.4675 27.4988C15.8286 27.5055 15.1897 27.5055 14.5508 27.4988C14.3875 27.4988 14.3226 27.5432 14.3073 27.7101C14.1666 29.2435 13.3546 30.3463 11.9746 31.064C11.6183 31.2491 11.2402 31.4021 10.8203 31.4203C10.4762 31.4355 10.1307 31.5095 9.79008 31.4905C8.80213 31.4347 7.93397 31.0864 7.19867 30.427C6.73421 30.0193 6.36447 29.5203 6.11401 28.9633C5.84186 28.3471 5.73486 27.674 5.80299 27.0068C5.93149 25.6318 6.6241 24.5857 7.79719 23.8376C8.27635 23.5312 8.81041 23.327 9.39194 23.2725C9.67116 23.2463 9.95213 23.188 10.2287 23.2028C11.0978 23.248 11.8967 23.5067 12.5989 24.0198C13.3586 24.5752 13.89 25.284 14.1614 26.1754C14.1806 26.2384 14.2838 26.3199 14.3487 26.3208C15.1533 26.3297 15.9583 26.3263 16.7833 26.3263ZM13.1543 27.3479C13.1229 25.623 11.817 24.3541 10.0645 24.3427C8.49982 24.3326 7.01266 25.4247 6.97781 27.3348C6.94645 29.047 8.34954 30.345 10.0105 30.3662C10.4228 30.374 10.8325 30.3016 11.2154 30.1531C11.5983 30.0046 11.9466 29.7831 12.2398 29.5017C12.5329 29.2202 12.7649 28.8846 12.9219 28.5147C13.079 28.1447 13.158 27.748 13.1543 27.3479ZM20.932 24.371C19.2392 24.2962 17.8248 25.7794 17.8453 27.3568C17.8666 29.0432 19.217 30.3222 20.8357 30.3649C22.6217 30.4122 23.9978 29.0711 24.0287 27.3939C24.0588 25.7696 22.6979 24.3173 20.932 24.371Z" fill="white"/>
<path d="M11.1496 26.3927C11.1542 26.4276 11.1542 26.463 11.1496 26.4979C11.1174 26.6137 11.2315 26.7845 11.0303 26.836C10.7972 26.8961 10.6504 26.8234 10.5223 26.6429C10.4371 26.5151 10.3288 26.4032 10.2026 26.3128C10.1255 26.2616 9.96737 26.2426 9.89506 26.2866C9.77701 26.3576 9.78747 26.5165 9.88417 26.6019C10.0514 26.7502 10.2475 26.8673 10.4296 26.9992C10.663 27.1683 10.9183 27.3166 11.1209 27.5153C11.3304 27.7211 11.3299 27.9477 11.1296 28.1573C10.954 28.3369 10.7517 28.49 10.5293 28.6113C10.3755 28.6958 10.2679 28.7626 10.3037 28.9494C10.3096 29.0123 10.3112 29.0756 10.3085 29.1387C10.3146 29.2934 10.254 29.3716 10.0793 29.3691C9.90465 29.3666 9.81796 29.307 9.83931 29.1311C9.83974 29.1241 9.83974 29.117 9.83931 29.11C9.83364 28.7296 9.83321 28.7351 9.45336 28.6924C9.30989 28.6801 9.16871 28.6495 9.03344 28.6015C8.99762 28.5829 8.96665 28.5565 8.94288 28.5245C8.9191 28.4925 8.90315 28.4557 8.89622 28.4168C8.87749 28.2283 8.89099 28.0364 8.88882 27.8471C8.88882 27.7203 8.94936 27.678 9.07613 27.6746C9.27737 27.6704 9.43245 27.6746 9.55529 27.8969C9.66245 28.0918 9.83495 28.3065 10.1307 28.263C10.2065 28.2516 10.308 28.2042 10.3363 28.1455C10.3484 28.1079 10.3508 28.0681 10.3432 28.0294C10.3356 27.9908 10.3183 27.9546 10.2928 27.924C10.1185 27.7765 9.92251 27.6505 9.73302 27.5187C9.54353 27.3868 9.334 27.2735 9.16107 27.1218C8.87531 26.8711 8.86704 26.4966 9.14539 26.2342C9.30577 26.0866 9.48762 25.9627 9.6851 25.8664C9.81056 25.8039 9.85934 25.7396 9.8454 25.6128C9.838 25.5431 9.84148 25.4721 9.84105 25.4015C9.84105 25.161 9.86936 25.1378 10.1159 25.1433C10.2405 25.1458 10.3058 25.1919 10.3111 25.3153C10.3167 25.4619 10.274 25.6475 10.3498 25.7439C10.42 25.833 10.6199 25.8229 10.7606 25.8639C11.147 25.9784 11.1466 25.9797 11.1496 26.3927Z" fill="white"/>
<path d="M21.1764 25.7819C21.4116 25.8242 21.6081 25.874 21.8076 25.8914C21.9683 25.9053 22.0254 25.9856 22.0289 26.1209C22.0393 26.2824 22.0368 26.4445 22.0215 26.6057C22.0106 26.6864 21.9409 26.8229 21.8908 26.8251C21.7392 26.8314 21.561 26.9155 21.436 26.7333C21.3345 26.585 21.2239 26.4315 21.0818 26.3246C21.0047 26.2667 20.8183 26.2536 20.7447 26.3052C20.6253 26.3897 20.6576 26.5461 20.7774 26.6302C21.047 26.8208 21.3402 26.9802 21.6024 27.1797C21.782 27.311 21.9371 27.4711 22.0611 27.6531C22.2044 27.8745 22.0964 28.1002 21.9191 28.2596C21.7476 28.4037 21.5602 28.5289 21.3602 28.6328C21.2365 28.7017 21.1494 28.7643 21.1751 28.9177C21.1864 28.9862 21.1707 29.0584 21.1751 29.129C21.189 29.2981 21.1215 29.3691 20.9385 29.3721C20.7399 29.3754 20.7029 29.2786 20.7207 29.121C20.7207 29.107 20.7207 29.0931 20.7207 29.0787C20.7251 28.7165 20.7242 28.7233 20.3644 28.6941C20.1998 28.6796 20.0373 28.6474 19.88 28.5981C19.8299 28.5825 19.775 28.495 19.7715 28.438C19.7571 28.2343 19.7586 28.0298 19.7759 27.8264C19.7811 27.7727 19.8704 27.6936 19.9314 27.6835C20.1396 27.6476 20.3091 27.6835 20.4328 27.8986C20.5447 28.096 20.7142 28.2841 20.9921 28.2634C21.0666 28.2575 21.1698 28.2144 21.199 28.1586C21.2282 28.1028 21.2147 27.9718 21.1685 27.935C20.9446 27.7579 20.7081 27.5968 20.4676 27.44C20.2272 27.2832 19.9785 27.1509 19.8395 26.8906C19.7598 26.7418 19.7524 26.6027 19.8473 26.4539C20.005 26.2029 20.208 26.0034 20.492 25.8952C20.658 25.8318 20.7595 25.7447 20.722 25.557C20.7103 25.4958 20.7264 25.4302 20.7199 25.3673C20.7033 25.2067 20.7634 25.1378 20.9403 25.1407C21.1045 25.1433 21.1842 25.1935 21.1764 25.3605C21.1733 25.5051 21.1764 25.65 21.1764 25.7819Z" fill="white"/>
</g>
<defs>
<clipPath id="clip0_103_1179">
<rect width="29" height="24" fill="white" transform="translate(1 7.5)"/>
</clipPath>
</defs>
</svg>
